<?xml version="1.0" encoding="utf-8"?>
<!-- Generator: Adobe Illustrator 25.0.0, SVG Export Plug-In . SVG Version: 6.00 Build 0)  -->
<svg version="1.1" id="Capa_1" xmlns="http://www.w3.org/2000/svg" xmlns:xlink="http://www.w3.org/1999/xlink" x="0px" y="0px"
	 viewBox="0 0 512 512" style="enable-background:new 0 0 512 512;" xml:space="preserve">
<style type="text/css">
	.st0{fill:#3C3744;}
</style>
<g>
	<g>
		<path class="st0" d="M209.3,106.5c-27-19.8-54.8-44.2-74.5-73.9L117.5,6.7c-3.7-5.5-10.5-7.9-16.8-6C94.3,2.6,90,8.4,90,15v235.3
			c-8.9-5.2-19-8.3-30-8.3c-33.1,0-60,26.9-60,60s26.9,60,60,60s60-26.9,60-60V64.2c21.2,26.8,47.7,48.9,71.6,66.4
			c11.7,8.6,18.4,21.8,18.4,36.3c0,24.8-20.2,45-45,45c-8.3,0-15,6.7-15,15s6.7,15,15,15c41.4,0,75-33.6,75-75
			C240,143.2,228.5,120.6,209.3,106.5z"/>
	</g>
</g>
<g>
	<g>
		<path class="st0" d="M492.9,122.6l-212,60c-6.4,1.8-10.9,7.7-10.9,14.4v203.3c-8.9-5.2-19-8.3-30-8.3c-33.1,0-60,26.9-60,60
			s26.9,60,60,60s60-26.9,60-60c0-3.4,0-183.7,0-183.7l182-51.4v123.5c-8.9-5.2-19-8.3-30-8.3c-33.1,0-60,26.9-60,60s26.9,60,60,60
			s60-26.9,60-60c0-3.4,0-255,0-255C512,127.1,502.5,119.8,492.9,122.6z"/>
	</g>
</g>
</svg>
