<?xml version="1.0" encoding="utf-8"?>
<!-- Generator: Adobe Illustrator 25.0.0, SVG Export Plug-In . SVG Version: 6.00 Build 0)  -->
<svg version="1.1" id="Layer_1" xmlns="http://www.w3.org/2000/svg" xmlns:xlink="http://www.w3.org/1999/xlink" x="0px" y="0px"
	 viewBox="0 0 27 24" style="enable-background:new 0 0 27 24;" xml:space="preserve">
<style type="text/css">
	.st0{fill:none;stroke:#3C3744;stroke-width:3;}
	.st1{fill:none;stroke:#3C3744;stroke-width:4;}
	.st2{fill-rule:evenodd;clip-rule:evenodd;fill:#3C3744;}
</style>
<path class="st0" d="M20.6,2l3.6,3.6l-3.6,3.6"/>
<path class="st0" d="M20.6,14.9l3.6,3.6L20.6,22"/>
<path class="st1" d="M0.6,6.1c5,0,10.1,2.4,11.6,6.2c1.5,3.8,5.5,6.2,10.6,6.2"/>
<path class="st2" d="M22.7,7.6c-2.9,0-5.2,0.9-6.8,2.3C15,9.1,14.4,8.2,14,7.2c-0.1-0.3-0.2-0.5-0.3-0.7c2.4-1.9,5.6-2.9,9-2.9V7.6z
	 M13.7,13.2c-1.2-0.9-2.1-2-2.8-3.4c-0.2,0.4-0.4,0.7-0.5,1.1c0,0.1-0.1,0.2-0.1,0.3c1.1,0.8,2.2,1.8,2.9,2.9
	C13.3,13.8,13.5,13.5,13.7,13.2z M10.2,17C9.7,16,8.7,15,7.3,14.1c-0.2,0.1-0.4,0.2-0.5,0.3c-1.8,0.9-4,1.5-6.2,1.5v4
	c2.8,0,5.7-0.7,8-1.9C9.1,17.7,9.7,17.4,10.2,17z"/>
</svg>
